<svg width="361" height="361" xmlns="http://www.w3.org/2000/svg" xmlns:xlink="http://www.w3.org/1999/xlink" overflow="hidden"><g transform="translate(-488 -208)"><path d="M508.5 360.5C508.5 287.598 567.598 228.5 640.5 228.5 713.402 228.5 772.5 287.598 772.5 360.5 772.5 433.402 713.402 492.5 640.5 492.5 567.598 492.5 508.5 433.402 508.5 360.5Z" stroke="#3b82f6" stroke-width="30.6667" stroke-miterlimit="8" fill="none" fill-rule="evenodd"/><path d="M614 360C614 345.641 625.641 334 640 334 654.359 334 666 345.641 666 360 666 374.359 654.359 386 640 386 625.641 386 614 374.359 614 360Z" fill="#3b82f6" fill-rule="evenodd"/><path d="M772 530C772 509.013 789.013 492 810 492 830.987 492 848 509.013 848 530 848 550.987 830.987 568 810 568 789.013 568 772 550.987 772 530Z" fill="#3b82f6" fill-rule="evenodd"/><path d="M753 228C753 217.507 761.507 209 772 209 782.493 209 791 217.507 791 228 791 238.493 782.493 247 772 247 761.507 247 753 238.493 753 228Z" fill="#3b82f6" fill-rule="evenodd"/><path d="M489 492C489 481.507 497.507 473 508 473 518.493 473 527 481.507 527 492 527 502.493 518.493 511 508 511 497.507 511 489 502.493 489 492Z" fill="#3b82f6" fill-rule="evenodd"/></g></svg>