<svg width="2690" height="1608" xmlns="http://www.w3.org/2000/svg" xmlns:xlink="http://www.w3.org/1999/xlink" xml:space="preserve" overflow="hidden"><g transform="translate(-855 -841)"><g><g><g><path d="M2232.77 1769.75C2232.77 1653.22 2327.22 1558.77 2443.75 1558.77 2560.27 1558.77 2654.73 1653.22 2654.73 1769.75 2654.73 1886.27 2560.27 1980.73 2443.75 1980.73 2327.22 1980.73 2232.77 1886.27 2232.77 1769.75Z" stroke="#3B82F6" stroke-width="49.0158" stroke-miterlimit="8" fill="none" fill-rule="evenodd"/><path d="M2401.39 1768.95C2401.39 1746 2420 1727.39 2442.95 1727.39 2465.9 1727.39 2484.5 1746 2484.5 1768.95 2484.5 1791.9 2465.9 1810.5 2442.95 1810.5 2420 1810.5 2401.39 1791.9 2401.39 1768.95Z" fill="#3B82F6" fill-rule="evenodd"/><path d="M2653.93 2040.66C2653.93 2007.12 2681.12 1979.93 2714.67 1979.93 2748.21 1979.93 2775.4 2007.12 2775.4 2040.66 2775.4 2074.21 2748.21 2101.4 2714.67 2101.4 2681.12 2101.4 2653.93 2074.21 2653.93 2040.66Z" fill="#3B82F6" fill-rule="evenodd"/><path d="M2623.56 1557.97C2623.56 1541.2 2637.16 1527.6 2653.93 1527.6 2670.7 1527.6 2684.3 1541.2 2684.3 1557.97 2684.3 1574.74 2670.7 1588.34 2653.93 1588.34 2637.16 1588.34 2623.56 1574.74 2623.56 1557.97Z" fill="#3B82F6" fill-rule="evenodd"/><path d="M2201.6 1979.93C2201.6 1963.16 2215.2 1949.56 2231.97 1949.56 2248.74 1949.56 2262.34 1963.16 2262.34 1979.93 2262.34 1996.7 2248.74 2010.3 2231.97 2010.3 2215.2 2010.3 2201.6 1996.7 2201.6 1979.93Z" fill="#3B82F6" fill-rule="evenodd"/></g></g></g><text fill="#002060" font-family="DengXian,DengXian_MSFontService,sans-serif" font-weight="700" font-size="440" transform="matrix(1 0 0 1 1119.19 1384)">Searchlysis</text></g></svg>